<?xml version="1.0" standalone="no"?>
<!DOCTYPE svg PUBLIC "-//W3C//DTD SVG 20010904//EN"
 "http://www.w3.org/TR/2001/REC-SVG-20010904/DTD/svg10.dtd">
<svg version="1.0" xmlns="http://www.w3.org/2000/svg"
 width="260.000000pt" height="260.000000pt" viewBox="0 0 260.000000 260.000000"
 preserveAspectRatio="xMidYMid meet">
<metadata>
Created by potrace 1.14, written by Peter Selinger 2001-2017
</metadata>
<g transform="translate(0.000000,260.000000) scale(0.100000,-0.100000)"
fill="#000000" stroke="none">
<path d="M0 1300 l0 -1300 1300 0 1300 0 0 1300 0 1300 -1300 0 -1300 0 0
-1300z m2440 300 c0 -456 -3 -830 -7 -829 -5 0 -40 44 -79 97 -40 53 -113 151
-164 217 l-91 120 7 99 c4 55 7 104 8 110 0 6 -3 47 -7 92 -31 339 -249 605
-587 719 -78 26 -97 28 -235 28 -138 0 -157 -2 -240 -28 -185 -60 -286 -128
-427 -292 -43 -50 -105 -172 -133 -262 -46 -146 -51 -341 -11 -466 9 -27 16
-53 16 -57 0 -7 -74 -98 -233 -286 -34 -41 -66 -80 -70 -88 -4 -8 -12 -14 -17
-14 -6 0 -10 314 -10 835 l0 835 1140 0 1140 0 0 -830z m-1056 545 c61 -8 148
-36 229 -73 62 -29 173 -111 191 -141 5 -8 26 -33 46 -55 50 -55 105 -164 129
-256 36 -138 36 -318 1 -258 -6 9 -27 38 -48 65 -21 26 -121 157 -221 291
-101 133 -189 242 -196 242 -7 0 -64 -57 -127 -127 -62 -69 -138 -154 -169
-187 -31 -34 -96 -106 -145 -161 -49 -55 -105 -118 -126 -140 l-37 -39 -23 29
c-63 82 -104 129 -113 132 -6 2 -49 -44 -95 -102 -47 -58 -90 -105 -97 -105
-20 0 -28 48 -27 165 3 210 88 417 217 525 16 14 46 39 66 57 70 61 238 126
366 142 69 8 82 8 179 -4z m210 -447 c41 -57 71 -107 66 -111 -4 -5 -40 -1
-79 8 -72 18 -104 16 -233 -11 -38 -8 -37 14 3 52 17 16 56 59 87 97 31 37 62
67 68 67 7 0 46 -46 88 -102z m52 -228 c71 -16 132 -30 136 -30 3 0 36 -39 71
-87 36 -49 171 -229 301 -401 130 -172 236 -319 236 -327 0 -13 -61 -15 -457
-14 l-458 0 -195 240 c-107 132 -202 248 -210 257 -8 10 -32 38 -53 64 l-37
47 91 103 c50 57 103 108 117 115 15 6 68 18 117 27 50 9 104 20 120 25 50 15
86 12 221 -19z m-772 -289 c53 -65 96 -122 96 -126 0 -7 -10 -6 -110 16 -30 7
-73 12 -95 12 -43 0 -149 -17 -177 -28 -33 -13 -19 14 45 88 34 39 78 91 97
115 18 23 37 42 41 42 3 0 50 -53 103 -119z m1 -220 c28 -5 80 -14 116 -20 36
-6 73 -13 82 -17 8 -3 51 -49 94 -102 43 -53 95 -115 116 -138 71 -79 107 -74
-523 -74 -399 0 -560 3 -560 11 0 10 152 196 217 266 31 33 59 43 183 63 41 7
86 16 100 21 27 9 93 5 175 -10z m1565 -521 l0 -60 -1140 0 -1140 0 0 60 0 60
1140 0 1140 0 0 -60z m-1077 -170 l1077 0 0 -50 0 -50 -1140 0 -1140 0 0 49
c0 58 6 62 75 56 28 -3 535 -5 1128 -5z"/>
</g>
</svg>
